Coordinates
version=1
nRows=65
nColumns=12
inDegrees=yes

Units are S.I. units (second, meters, Newtons, ...)
Angles are in degrees

endheader
time	SC_y	SC_z	SC_x	AC_y	AC_z	AC_x	GH_y	GH_z	GH_yy	EL_x	PS_y
       0.0              -30.96         -3.913          34.15          48.11          9.864         -2.246          175.2          46.27         -71.81          41.06          88.68
  0.003473              -30.96         -3.907          34.16          48.11          9.863         -2.245          175.2          46.26         -71.79          41.06          88.68
  0.006947              -30.96         -3.901          34.16          48.11          9.863         -2.243          175.2          46.26         -71.76          41.05          88.67
   0.01042              -30.97         -3.895          34.17          48.11          9.862         -2.242          175.2          46.25         -71.73          41.05          88.66
   0.01389              -30.97         -3.888          34.17          48.11          9.861         -2.241          175.2          46.25          -71.7          41.04          88.65
   0.01737              -30.97          -3.88          34.18          48.11           9.86         -2.239          175.2          46.24         -71.67          41.04          88.64
   0.02084              -30.98         -3.872          34.19          48.11           9.86         -2.238          175.2          46.23         -71.64          41.03          88.63
   0.02431              -30.98         -3.864          34.19          48.12          9.859         -2.236          175.2          46.22          -71.6          41.03          88.62
   0.02779              -30.99         -3.855           34.2          48.12          9.858         -2.235          175.2          46.22         -71.56          41.02          88.61
   0.03126              -30.99         -3.845          34.21          48.12          9.857         -2.233          175.1          46.21         -71.52          41.01           88.6
   0.03473               -31.0         -3.835          34.22          48.12          9.856         -2.231          175.1           46.2         -71.48           41.0          88.58
   0.03821              -31.01         -3.823          34.23          48.12          9.855         -2.229          175.1          46.19         -71.43           41.0          88.57
   0.04168              -31.01         -3.811          34.24          48.13          9.853         -2.226          175.1          46.18         -71.37          40.99          88.55
   0.04515              -31.02         -3.798          34.25          48.13          9.852         -2.224          175.1          46.17         -71.32          40.98          88.54
   0.04863              -31.03         -3.784          34.26          48.13           9.85         -2.221          175.0          46.15         -71.26          40.97          88.52
    0.0521              -31.04         -3.768          34.27          48.14          9.849         -2.218          175.0          46.14         -71.19          40.96           88.5
   0.05557              -31.05         -3.752          34.28          48.14          9.847         -2.215          175.0          46.13         -71.12          40.95          88.48
   0.05905              -31.06         -3.733           34.3          48.14          9.845         -2.211          175.0          46.11         -71.04          40.93          88.46
   0.06252              -31.07         -3.713          34.31          48.15          9.843         -2.208          174.9          46.09         -70.96          40.92          88.43
   0.06599              -31.08         -3.692          34.33          48.15          9.841         -2.203          174.9          46.07         -70.86           40.9           88.4
   0.06947              -31.09         -3.668          34.35          48.16          9.839         -2.199          174.8          46.05         -70.76          40.89          88.37
   0.07294              -31.11         -3.641          34.37          48.16          9.836         -2.194          174.8          46.03         -70.65          40.87          88.34
   0.07642              -31.12         -3.612           34.4          48.17          9.833         -2.188          174.8           46.0         -70.52          40.85           88.3
   0.07989              -31.14          -3.58          34.42          48.17           9.83         -2.182          174.7          45.97         -70.39          40.82          88.26
   0.08336              -31.16         -3.544          34.45          48.18          9.826         -2.175          174.6          45.94         -70.23           40.8          88.22
   0.08684              -31.18         -3.504          34.48          48.19          9.822         -2.168          174.6          45.91         -70.06          40.77          88.17
   0.09031              -31.21         -3.459          34.52           48.2          9.817         -2.159          174.5          45.87         -69.87          40.74          88.11
   0.09378              -31.24         -3.409          34.56          48.21          9.812          -2.15          174.4          45.82         -69.65           40.7          88.05
   0.09726              -31.27         -3.352           34.6          48.22          9.806         -2.139          174.3          45.77         -69.41          40.66          87.98
    0.1007               -31.3         -3.287          34.66          48.23            9.8         -2.126          174.2          45.72         -69.13          40.62          87.89
    0.1042              -31.34         -3.213          34.72          48.25          9.792         -2.112          174.1          45.65         -68.82          40.57           87.8
    0.1077              -31.39         -3.128          34.78          48.26          9.783         -2.096          173.9          45.58         -68.45          40.51          87.69
    0.1111              -31.44         -3.031          34.86          48.28          9.773         -2.077          173.8          45.49         -68.04          40.44          87.57
    0.1146              -31.51         -2.917          34.95           48.3          9.762         -2.056          173.6          45.39         -67.55          40.36          87.43
    0.1181              -31.58         -2.784          35.06          48.33          9.748          -2.03          173.4          45.27         -66.98          40.26          87.26
    0.1216              -31.67         -2.627          35.19          48.36          9.732         -2.001          173.1          45.14         -66.31          40.15          87.06
     0.125              -31.77         -2.441          35.34           48.4          9.713         -1.965          172.8          44.97         -65.51          40.02          86.83
    0.1285              -31.89         -2.217          35.51          48.44           9.69         -1.922          172.4          44.77         -64.56          39.86          86.55
     0.132              -32.04         -1.947          35.73           48.5          9.663         -1.871          172.0          44.54          -63.4          39.67          86.21
    0.1355              -32.23         -1.617           36.0          48.56          9.629         -1.808          171.4          44.25         -61.99          39.44          85.79
    0.1389              -32.45         -1.209          36.32          48.64          9.587          -1.73          170.8          43.89         -60.24          39.15          85.28
    0.1424              -32.73        -0.7012          36.73          48.74          9.535         -1.633          169.9          43.44         -58.07          38.79          84.64
    0.1459              -33.09       -0.06111          37.25          48.87           9.47         -1.511          168.9          42.88         -55.33          38.34          83.83
    0.1494              -33.54         0.7526           37.9          49.03          9.386         -1.356          167.5          42.16         -51.85          37.77          82.81
    0.1528              -34.12          1.794          38.73          49.24           9.28         -1.158          165.8          41.24         -47.39          37.03           81.5
    0.1563              -34.85          3.131          39.81           49.5          9.143        -0.9029          163.6          40.06         -41.67          36.09          79.81
    0.1598               -35.8          4.838          41.18          49.84          8.969        -0.5774          160.7          38.56         -34.37          34.88          77.66
    0.1633              -36.99          6.985           42.9          50.26          8.749        -0.1682          157.2          36.67         -25.18          33.37          74.96
    0.1667              -38.44          9.601           45.0          50.78          8.481         0.3305          152.8          34.37         -13.99          31.52          71.66
    0.1702              -40.11          12.63          47.43          51.38          8.171         0.9086          147.8           31.7         -1.013          29.38          67.85
    0.1737              -41.93          15.92          50.07          52.03          7.835          1.535          142.3          28.81          13.04          27.06          63.71
    0.1771              -43.75           19.2           52.7          52.68            7.5           2.16          136.9          25.91          27.09          24.75          59.58
    0.1806              -45.43          22.23          55.14          53.28          7.189          2.739          131.9          23.24          40.06          22.61          55.76
    0.1841              -46.88          24.85          57.24           53.8          6.922          3.237          127.5          20.94          51.25          20.76          52.46
    0.1876              -48.06           27.0          58.96          54.22          6.702          3.646          123.9          19.05          60.44          19.25          49.76
     0.191              -49.01           28.7          60.33          54.56          6.528          3.972          121.1          17.55          67.74          18.04          47.61
    0.1945              -49.75          30.04           61.4          54.83          6.391          4.227          118.9          16.37          73.46           17.1          45.93
     0.198              -50.33          31.08          62.24          55.03          6.284          4.425          117.2          15.45          77.92          16.36          44.61
    0.2015              -50.78          31.89          62.89          55.19          6.201           4.58          115.8          14.74           81.4          15.79          43.59
    0.2049              -51.13          32.53           63.4          55.32          6.136          4.702          114.8          14.17          84.14          15.34          42.78
    0.2084              -51.41          33.04          63.81          55.42          6.084          4.799          113.9          13.73          86.31          14.98          42.14
    0.2119              -51.64          33.45          64.14           55.5          6.042          4.877          113.2          13.37          88.06          14.69          41.63
    0.2154              -51.82          33.78           64.4          55.57          6.008           4.94          112.7          13.08          89.47          14.46          41.21
    0.2188              -51.97          34.05          64.62          55.62           5.98          4.991          112.2          12.84          90.63          14.27          40.87
    0.2223              -52.09          34.27           64.8          55.66          5.958          5.034          111.9          12.64          91.58          14.11          40.59
